<svg width="95" height="80" viewBox="0 0 95 80" fill="none" xmlns="http://www.w3.org/2000/svg">
<ellipse cx="83" cy="67.5" rx="9" ry="8.5" fill="#8C52FF"/>
<path d="M46.5 0C49.1628 0.499743 50.5 1.5 50.5 1.5C71 9.50002 71.9997 39.5 42.9541 44.5L61.5 59C65.6667 63 72.5 72.5458 66.5 78.7275C56.1669 78.9851 36.9917 79.3457 42.9541 78.7275C50.4085 77.9547 58.4999 65.5 49.5 56.5C45.8599 52.8599 20 35.5 16 40.5C19.0803 45.0828 29.8458 52.0769 33 59C36.8431 67.4353 32.5757 75.7652 29.5 79.5H0C1.33333 79 3.99997 76.5999 4 71V7C4 5.50001 4.49995 4.49996 0 0H46.5ZM94 0.0869141C94.4033 0.229636 94.7237 0.540392 94.8848 0.93457L89.5 45C89.4999 45.5 88.7002 46 91.5 46L74.5 52C74.5 52 75 51.4999 75 50.5L73 7C73 5.99999 73.4999 3.59997 69.5 0H94V0.0869141ZM36 15C23.2975 15 13 19.2533 13 24.5C13.0001 29.7467 23.2975 34 36 34C48.7025 34 58.9999 29.7467 59 24.5C59 19.2533 48.7025 15 36 15Z" fill="#8C52FF"/>
</svg>
